<svg width="314" height="450" viewBox="0 0 314 450" fill="none" xmlns="http://www.w3.org/2000/svg">
<g clip-path="url(#clip0_132_1287)">
<rect width="314" height="450" rx="30" fill="#672CBC"/>
<g style="mix-blend-mode:soft-light" opacity="0.5">
<path d="M-14 147.07H92.3C92.3 147.07 84.7 123.77 71.9 127.17C59.1 130.47 59.6 133.37 59.6 133.37C59.6 133.37 55.8 113.47 38.7 116.27C21.6 119.07 17.8 132.87 17.8 132.87C17.8 132.87 6.90001 128.57 2.10001 132.87C-2.59999 137.17 -1.69998 139.47 -1.69998 139.47C-1.69998 139.47 -12.1 134.77 -14 147.07Z" fill="white"/>
</g>
<g style="mix-blend-mode:soft-light" opacity="0.8">
<path d="M267 104.216C265.8 100.816 263.1 94.9161 258.9 93.5161C252.9 91.5161 244 98.1161 244 98.1161C244 98.1161 239.7 82.6161 225.3 82.0161C210.9 81.4161 213.5 97.8161 213.5 97.8161C213.5 97.8161 209.8 96.7161 202.3 94.4161C194.8 92.1161 192.2 99.0161 192.2 99.0161C187.5 97.3161 185.6 101.816 185 104.216H267Z" fill="white"/>
</g>
<path d="M43.7 4C43.7 4 43.5 6.6 41 6.9C43.5 7.2 43.7 9.8 43.7 9.8C43.7 9.8 43.9 7.2 46.4 6.9C43.9 6.7 43.7 4 43.7 4Z" fill="#FFD08A"/>
<path d="M177.7 45C177.7 45 177.5 47.6 175 47.9C177.5 48.2 177.7 50.8 177.7 50.8C177.7 50.8 177.9 48.2 180.4 47.9C177.9 47.7 177.7 45 177.7 45Z" fill="#FFD08A"/>
<path d="M79.7 35C79.7 35 79.5 37.6 77 37.9C79.5 38.2 79.7 40.8 79.7 40.8C79.7 40.8 79.9 38.2 82.4 37.9C79.9 37.7 79.7 35 79.7 35Z" fill="#FFD08A"/>
<path d="M299.7 104C299.7 104 299.5 106.6 297 106.9C299.5 107.2 299.7 109.8 299.7 109.8C299.7 109.8 299.9 107.2 302.4 106.9C299.8 106.7 299.7 104 299.7 104Z" fill="#FFD08A"/>
<path d="M183.3 163.6C183.3 163.6 183.1 166.2 180.6 166.5C183.1 166.8 183.3 169.4 183.3 169.4C183.3 169.4 183.5 166.8 186 166.5C183.4 166.3 183.3 163.6 183.3 163.6Z" fill="#FFD08A"/>
<path d="M139.1 74C139.1 74 138.6 81 132 81.6C138.6 82.3 139.1 89.2 139.1 89.2C139.1 89.2 139.6 82.2 146.2 81.6C139.6 81 139.1 74 139.1 74Z" fill="#FFD08A"/>
<path d="M15.1 62.7C15.1 62.7 14.6 69.7 8 70.3C14.6 71 15.1 77.9 15.1 77.9C15.1 77.9 15.6 70.9 22.2 70.3C15.6 69.7 15.1 62.7 15.1 62.7Z" fill="#FFD08A"/>
<path d="M132.2 4C132.2 4 131.8 9.1 127 9.6C131.8 10.1 132.2 15.2 132.2 15.2C132.2 15.2 132.6 10.1 137.4 9.6C132.6 9 132.2 4 132.2 4Z" fill="#FFD08A"/>
<path d="M58.6 99C58.6 99 58.3 103.5 54 104C58.3 104.4 58.6 109 58.6 109C58.6 109 58.9 104.5 63.2 104C59 103.5 58.6 99 58.6 99Z" fill="#FFD08A"/>
<path d="M99.5 198.9C99.5 198.9 99.2 203.4 94.9 203.9C99.2 204.3 99.5 208.9 99.5 208.9C99.5 208.9 99.8 204.4 104.1 203.9C99.8 203.4 99.5 198.9 99.5 198.9Z" fill="#FFD08A"/>
<g style="mix-blend-mode:soft-light" opacity="0.5">
<path d="M237.8 172.5H344.1C344.1 172.5 336.5 149.2 323.7 152.6C310.9 155.9 311.4 158.8 311.4 158.8C311.4 158.8 307.6 138.9 290.5 141.7C273.4 144.5 269.6 158.3 269.6 158.3C269.6 158.3 258.7 154 253.9 158.3C249.2 162.6 250.1 164.9 250.1 164.9C250.1 164.9 239.7 160.2 237.8 172.5Z" fill="white"/>
</g>
</g>
<defs>
<clipPath id="clip0_132_1287">
<rect width="314" height="450" fill="white"/>
</clipPath>
</defs>
</svg>
